<svg width="96" height="221" viewBox="0 0 96 221" fill="none" xmlns="http://www.w3.org/2000/svg">
<g clip-path="url(#clip0_113_179)">
<circle cx="47.8582" cy="44.2157" r="34.077" fill="#DAF6FF" fill-opacity="0.2"/>
<path d="M48.1406 -1.5C73.4193 -1.5 93.9337 18.8917 94.1348 44.123C94.1622 44.2365 94.1787 44.3546 94.1787 44.4766C94.1787 59.5659 86.909 72.9569 75.6816 81.3398C68.0038 87.0885 58.4701 90.4941 48.1406 90.4941C48.018 90.4941 47.8992 90.4779 47.7852 90.4502C22.5848 90.2263 2.22461 69.7297 2.22461 44.4766C2.22477 43.6484 2.89645 42.9768 3.72461 42.9766C4.55294 42.9766 5.22445 43.6483 5.22461 44.4766C5.22461 68.212 24.4667 87.4531 48.2021 87.4531C57.832 87.4531 66.7213 84.2851 73.8867 78.9355C84.3595 71.0935 91.1377 58.5873 91.1377 44.4971C91.1376 20.7504 71.8873 1.5 48.1406 1.5C47.3122 1.5 46.6406 0.828427 46.6406 0C46.6406 -0.828427 47.3122 -1.5 48.1406 -1.5Z" fill="url(#paint0_linear_113_179)"/>
<circle cx="47.3895" cy="166.716" r="34.077" fill="#E7F9FF" fill-opacity="0.2"/>
<path d="M90.6689 166.997C90.6689 143.25 71.4185 124 47.6719 124C46.8434 124 46.1719 123.328 46.1719 122.5C46.1719 121.672 46.8434 121 47.6719 121C73.0754 121 93.6689 141.594 93.6689 166.997C93.6689 192.401 73.0754 212.994 47.6719 212.994C46.8434 212.994 46.1719 212.323 46.1719 211.494C46.1721 210.666 46.8436 209.994 47.6719 209.994C71.4186 209.994 90.6689 190.744 90.6689 166.997Z" fill="url(#paint1_linear_113_179)"/>
<path d="M35.2071 173.673C34.4784 173.673 33.8264 173.526 33.2512 173.232C32.6801 172.934 32.2242 172.525 31.8833 172.005C31.5466 171.485 31.3676 170.891 31.3463 170.222H32.5033C32.5416 170.916 32.8144 171.487 33.3215 171.935C33.8286 172.378 34.4571 172.599 35.2071 172.599C35.7909 172.599 36.3108 172.461 36.7668 172.184C37.2227 171.903 37.5786 171.519 37.8343 171.033C38.0942 170.543 38.2242 169.992 38.2242 169.378C38.2199 168.739 38.0814 168.176 37.8087 167.69C37.536 167.2 37.1652 166.817 36.6965 166.54C36.232 166.263 35.71 166.124 35.1304 166.124C34.6915 166.12 34.2611 166.193 33.8392 166.342C33.4173 166.491 33.0658 166.683 32.7845 166.917L31.5892 166.764L32.3754 160.403H38.8442V161.477H33.379L32.8548 165.856H32.9188C33.2085 165.613 33.5601 165.415 33.9735 165.261C34.3911 165.108 34.8321 165.031 35.2966 165.031C36.0679 165.031 36.7604 165.217 37.374 165.587C37.9919 165.958 38.4798 166.47 38.8378 167.122C39.2 167.769 39.3811 168.515 39.3811 169.359C39.3811 170.185 39.2 170.925 38.8378 171.577C38.4798 172.224 37.9855 172.736 37.3548 173.111C36.7284 173.486 36.0125 173.673 35.2071 173.673ZM46.1663 173.673C45.2458 173.673 44.4596 173.409 43.8076 172.881C43.1599 172.348 42.6613 171.579 42.3119 170.573C41.9667 169.568 41.7941 168.359 41.7941 166.949C41.7941 165.543 41.9667 164.339 42.3119 163.337C42.6613 162.332 43.162 161.563 43.814 161.03C44.4703 160.493 45.2544 160.224 46.1663 160.224C47.0782 160.224 47.8602 160.493 48.5122 161.03C49.1684 161.563 49.6691 162.332 50.0143 163.337C50.3637 164.339 50.5384 165.543 50.5384 166.949C50.5384 168.359 50.3637 169.568 50.0143 170.573C49.6691 171.579 49.1705 172.348 48.5186 172.881C47.8708 173.409 47.0867 173.673 46.1663 173.673ZM46.1663 172.599C47.1762 172.599 47.9646 172.107 48.5313 171.123C49.0981 170.134 49.3815 168.743 49.3815 166.949C49.3815 165.756 49.2515 164.737 48.9916 163.894C48.7359 163.046 48.3673 162.398 47.8857 161.95C47.4085 161.503 46.8353 161.279 46.1663 161.279C45.1649 161.279 44.3786 161.778 43.8076 162.775C43.2366 163.768 42.9511 165.159 42.9511 166.949C42.9511 168.142 43.0789 169.161 43.3346 170.004C43.5945 170.848 43.9632 171.492 44.4404 171.935C44.922 172.378 45.4972 172.599 46.1663 172.599ZM59.7622 171.065V170.471C59.7622 169.981 59.8602 169.54 60.0562 169.148C60.2522 168.751 60.5313 168.438 60.8936 168.208C61.2558 167.978 61.6862 167.863 62.1847 167.863C62.6876 167.863 63.118 167.978 63.4759 168.208C63.8339 168.438 64.1088 168.751 64.3005 169.148C64.4923 169.54 64.5882 169.981 64.5882 170.471V171.065C64.5882 171.555 64.4901 171.997 64.2941 172.389C64.1024 172.781 63.8275 173.094 63.4695 173.328C63.1116 173.558 62.6833 173.673 62.1847 173.673C61.6776 173.673 61.243 173.558 60.8808 173.328C60.5228 173.094 60.2458 172.781 60.0498 172.389C59.858 171.997 59.7622 171.555 59.7622 171.065ZM60.7657 170.471V171.065C60.7657 171.547 60.8829 171.958 61.1173 172.299C61.3559 172.636 61.7117 172.804 62.1847 172.804C62.645 172.804 62.9923 172.636 63.2267 172.299C63.461 171.958 63.5782 171.547 63.5782 171.065V170.471C63.5782 169.989 63.4632 169.58 63.233 169.244C63.0029 168.903 62.6535 168.732 62.1847 168.732C61.7203 168.732 61.3666 168.903 61.1237 169.244C60.885 169.58 60.7657 169.989 60.7657 170.471ZM53.1656 163.427V162.832C53.1656 162.342 53.2636 161.901 53.4596 161.509C53.6556 161.117 53.9347 160.806 54.297 160.576C54.6592 160.342 55.0896 160.224 55.5882 160.224C56.091 160.224 56.5214 160.342 56.8794 160.576C57.2373 160.806 57.5122 161.117 57.7039 161.509C57.8957 161.901 57.9916 162.342 57.9916 162.832V163.427C57.9916 163.917 57.8936 164.36 57.6975 164.756C57.5058 165.149 57.2309 165.46 56.873 165.69C56.515 165.92 56.0867 166.035 55.5882 166.035C55.0811 166.035 54.6464 165.92 54.2842 165.69C53.9262 165.46 53.6492 165.149 53.4532 164.756C53.2615 164.36 53.1656 163.917 53.1656 163.427ZM54.1691 162.832V163.427C54.1691 163.908 54.2863 164.32 54.5207 164.661C54.7593 164.997 55.1151 165.166 55.5882 165.166C56.0484 165.166 56.3957 164.997 56.6301 164.661C56.8644 164.32 56.9816 163.908 56.9816 163.427V162.832C56.9816 162.351 56.8666 161.942 56.6365 161.605C56.4063 161.264 56.0569 161.094 55.5882 161.094C55.1237 161.094 54.77 161.264 54.5271 161.605C54.2884 161.942 54.1691 162.351 54.1691 162.832ZM53.7536 173.494L62.7472 160.403H63.8786L54.885 173.494H53.7536Z" fill="#D9D9D9"/>
<path d="M37.5234 46.8685L49.1424 26.8982C49.4313 26.4015 50.1928 26.7047 50.0613 27.2641L47.2173 39.3622C47.1388 39.6961 47.4122 40.0081 47.7535 39.9742L58.0729 38.9473C58.4698 38.9078 58.7509 39.3261 58.5644 39.6786L46.7684 61.9807C46.499 62.4901 45.7238 62.2149 45.8359 61.6497L48.8047 46.6822C48.872 46.3428 48.5826 46.0393 48.2404 46.0904L38.0294 47.6145C37.6147 47.6764 37.3125 47.231 37.5234 46.8685Z" fill="#D9D9D9"/>
</g>
<defs>
<linearGradient id="paint0_linear_113_179" x1="48.2017" y1="-1.5" x2="-21.0002" y2="44" gradientUnits="userSpaceOnUse">
<stop stop-color="#BEDCE6"/>
<stop offset="1" stop-color="#6A7A80" stop-opacity="0"/>
</linearGradient>
<linearGradient id="paint1_linear_113_179" x1="69.9204" y1="121" x2="24.0174" y2="136.589" gradientUnits="userSpaceOnUse">
<stop stop-color="#BEDCE6"/>
<stop offset="1" stop-color="#6A7A80" stop-opacity="0"/>
</linearGradient>
<clipPath id="clip0_113_179">
<rect width="96" height="221" fill="white"/>
</clipPath>
</defs>
</svg>
