<svg width="88" height="87" viewBox="0 0 88 87" fill="none" xmlns="http://www.w3.org/2000/svg">
<g clip-path="url(#clip0_111_147)">
<circle cx="43.6127" cy="43.4999" r="43.1811" fill="url(#paint0_radial_111_147)"/>
<g opacity="0.8">
<path d="M16.7825 43.8565C16.7825 38.2851 21.6001 33.7686 27.5429 33.7686C33.4858 33.7686 38.6877 37.0111 43.6836 43.8565" stroke="#BEDCE6" stroke-width="3"/>
<path d="M69.744 43.8564C69.744 49.4278 65.077 53.9443 59.3199 53.9443C53.5627 53.9443 48.5234 50.7018 43.6836 43.8564" stroke="#BEDCE6" stroke-width="3"/>
<path d="M16.7825 43.8564C16.7825 49.4278 21.6001 53.9443 27.5429 53.9443C33.4858 53.9443 38.6877 50.7018 43.6836 43.8564" stroke="url(#paint1_linear_111_147)" stroke-width="3"/>
<path d="M69.744 43.8565C69.744 38.2851 65.077 33.7686 59.3199 33.7686C53.5627 33.7686 48.5234 37.0111 43.6836 43.8565" stroke="url(#paint2_linear_111_147)" stroke-width="3"/>
</g>
</g>
<defs>
<radialGradient id="paint0_radial_111_147" cx="0" cy="0" r="1" gradientUnits="userSpaceOnUse" gradientTransform="translate(43.1315 43.4999) scale(114 118.387)">
<stop offset="0.1" stop-color="white" stop-opacity="0"/>
<stop offset="1" stop-color="white"/>
</radialGradient>
<linearGradient id="paint1_linear_111_147" x1="43.6836" y1="48.9004" x2="41.1552" y2="59.1505" gradientUnits="userSpaceOnUse">
<stop offset="0.615385" stop-color="#BEDCE6"/>
<stop offset="1" stop-color="#6A7A80" stop-opacity="0"/>
</linearGradient>
<linearGradient id="paint2_linear_111_147" x1="43.6836" y1="38.8125" x2="46.2838" y2="28.6007" gradientUnits="userSpaceOnUse">
<stop offset="0.615385" stop-color="#BEDCE6"/>
<stop offset="1" stop-color="#6A7A80" stop-opacity="0"/>
</linearGradient>
<clipPath id="clip0_111_147">
<rect width="87" height="87" fill="white" transform="translate(0.113281)"/>
</clipPath>
</defs>
</svg>
